<?xml version="1.0" standalone="no"?>
<!DOCTYPE svg PUBLIC "-//W3C//DTD SVG 20010904//EN"
 "http://www.w3.org/TR/2001/REC-SVG-20010904/DTD/svg10.dtd">
<svg version="1.0" xmlns="http://www.w3.org/2000/svg"
 width="704.000000pt" height="698.000000pt" viewBox="0 0 704.000000 698.000000"
 preserveAspectRatio="xMidYMid meet">

<g transform="translate(0.000000,698.000000) scale(0.100000,-0.100000)"
fill="#000000" stroke="none">
<path d="M3225 6970 c-1231 -107 -2306 -835 -2858 -1935 -168 -336 -281 -698
-343 -1095 -25 -165 -31 -677 -9 -873 115 -1038 675 -1958 1550 -2544 303
-203 618 -348 997 -458 234 -68 198 -66 988 -63 l715 3 120 33 c570 160 1040
405 1435 751 606 531 1016 1243 1160 2017 44 241 53 348 53 639 0 291 -11 425
-54 660 -201 1092 -915 2027 -1924 2520 -349 170 -680 270 -1085 326 -165 23
-577 33 -745 19z m695 -184 c949 -122 1775 -623 2314 -1406 234 -339 388 -683
491 -1090 113 -449 127 -988 39 -1442 -197 -1013 -847 -1877 -1759 -2338 -364
-184 -739 -294 -1145 -336 -203 -20 -580 -15 -765 11 -593 82 -1138 317 -1615
693 -120 95 -412 388 -511 512 -346 436 -573 932 -678 1480 -63 329 -71 767
-20 1105 141 948 682 1790 1483 2310 361 234 765 391 1221 477 28 5 124 18
215 28 198 23 532 21 730 -4z"/>
<path d="M2685 5903 c-31 -8 -85 -52 -105 -85 -62 -103 -6 -237 113 -269 59
-16 114 -4 162 36 126 103 65 305 -97 319 -29 3 -62 2 -73 -1z"/>
<path d="M4111 5872 c-42 -7 -94 -46 -127 -97 -24 -37 -22 -131 3 -173 39 -63
123 -107 185 -97 36 6 109 48 116 66 2 5 11 16 19 25 44 43 33 159 -20 216
-47 50 -109 71 -176 60z"/>
<path d="M3363 5845 c-59 -36 -86 -84 -87 -155 -1 -46 4 -65 27 -98 92 -140
278 -114 331 46 16 48 16 56 2 100 -39 116 -171 168 -273 107z"/>
<path d="M2817 5323 c-4 -3 -7 -19 -7 -33 0 -26 6 -29 103 -61 93 -31 104 -37
119 -69 16 -32 18 -81 18 -583 0 -451 -2 -553 -14 -575 -17 -34 -82 -71 -161
-93 -56 -15 -60 -18 -63 -47 -2 -21 1 -32 10 -33 7 0 226 0 487 1 461 1 475 2
566 25 107 27 151 48 223 105 166 131 175 368 19 505 -54 47 -163 99 -232 110
-106 17 -111 26 -27 50 189 53 292 169 292 326 0 139 -62 240 -184 299 -89 43
-164 59 -326 70 -165 11 -813 13 -823 3z m805 -103 c123 -15 233 -84 269 -167
25 -59 34 -157 19 -213 -25 -95 -84 -153 -190 -184 -76 -23 -356 -23 -388 0
-22 15 -22 17 -22 293 0 153 3 280 6 283 7 8 217 -1 306 -12z m-42 -685 c228
-30 336 -116 348 -275 7 -102 -4 -152 -46 -210 -28 -38 -53 -59 -102 -83 -62
-31 -69 -32 -213 -36 -179 -4 -200 2 -231 68 -19 42 -21 67 -24 271 -2 140 1
236 7 253 10 26 14 27 79 27 37 0 119 -7 182 -15z"/>
<path d="M1788 3264 c-16 -5 -18 -23 -18 -195 0 -163 2 -190 16 -196 25 -9 39
15 39 70 l0 52 87 6 c124 8 172 46 170 134 0 50 -23 90 -64 111 -28 15 -197
28 -230 18z m180 -50 c65 -10 85 -106 30 -147 -28 -21 -110 -34 -152 -23 -25
6 -26 9 -26 86 0 103 5 106 148 84z"/>
<path d="M2263 3263 c-10 -3 -13 -52 -13 -194 0 -163 2 -190 16 -196 8 -3 20
-1 25 4 11 11 19 255 10 332 -6 53 -14 64 -38 54z"/>
<path d="M2801 3256 c-9 -10 -12 -54 -10 -140 1 -70 0 -129 -3 -132 -3 -3 -56
58 -118 135 -89 112 -117 141 -136 141 l-24 0 2 -192 c3 -185 4 -193 23 -193
19 0 20 8 23 138 1 77 7 137 12 137 5 0 57 -60 116 -132 110 -138 129 -157
145 -141 5 5 8 92 7 198 -3 188 -9 215 -37 181z"/>
<path d="M2994 3255 c-10 -26 7 -37 55 -35 25 2 52 2 58 1 9 -1 13 -46 15
-173 3 -165 4 -173 23 -173 19 0 20 8 23 173 l2 172 58 0 c67 0 92 11 74 33
-17 20 -300 23 -308 2z"/>
<path d="M3461 3260 c-10 -5 -12 -43 -9 -147 3 -129 5 -142 28 -176 55 -81
190 -89 257 -16 32 36 43 91 43 215 0 79 -4 115 -13 122 -28 23 -35 -3 -38
-141 l-4 -139 -33 -29 c-26 -24 -41 -29 -82 -29 -54 0 -82 19 -100 66 -6 14
-10 81 -10 149 0 125 -6 146 -39 125z"/>
<path d="M3982 3262 c-9 -6 -12 -53 -10 -198 3 -181 4 -189 23 -189 17 0 21 8
25 60 l5 60 62 3 62 3 41 -61 c44 -64 64 -80 82 -62 8 8 1 26 -25 64 -21 29
-37 56 -37 60 0 3 16 22 35 41 30 30 35 42 35 81 0 59 -21 101 -63 122 -36 19
-213 31 -235 16z m147 -42 c63 0 101 -32 101 -85 0 -66 -59 -100 -160 -93
l-45 3 -3 87 c-2 76 -1 87 15 91 10 3 24 3 31 1 8 -2 35 -4 61 -4z"/>
<path d="M4573 3262 c-11 -7 -39 -64 -129 -265 -50 -111 -54 -130 -23 -125 14
2 27 17 38 43 27 67 23 65 136 65 l103 0 18 -50 c11 -30 26 -52 37 -56 37 -12
40 11 9 72 -16 33 -53 113 -82 179 -59 134 -77 156 -107 137z m62 -149 c20
-42 34 -77 33 -78 -8 -7 -137 -11 -147 -6 -12 8 56 161 71 161 5 0 24 -34 43
-77z"/>
<path d="M5261 3262 c-68 -11 -92 -61 -60 -128 l19 -41 -40 -40 c-33 -34 -40
-47 -40 -80 0 -57 39 -92 113 -100 45 -5 64 -2 97 16 48 25 69 27 76 6 8 -21
44 -19 44 2 0 9 -9 26 -20 38 -19 20 -19 24 -5 59 9 20 13 41 10 46 -11 18
-35 10 -45 -15 -5 -14 -13 -25 -18 -25 -4 0 -25 18 -47 40 l-39 40 37 35 c40
39 49 85 24 119 -14 19 -69 34 -106 28z m69 -62 c13 -24 0 -54 -30 -70 -28
-15 -38 -12 -56 15 -14 21 -15 31 -6 50 15 33 76 36 92 5z m-22 -189 c29 -27
52 -54 52 -59 0 -15 -48 -32 -92 -32 -79 0 -106 65 -47 114 17 14 32 26 33 26
1 0 26 -22 54 -49z"/>
<path d="M5662 2683 c-19 -7 -62 -52 -62 -63 0 -18 36 -10 71 15 19 14 34 31
34 38 0 13 -23 19 -43 10z"/>
<path d="M797 2572 c-16 -3 -17 -19 -15 -195 3 -184 4 -192 23 -192 18 0 20 8
23 63 l3 62 63 0 63 0 42 -65 c27 -43 48 -65 61 -65 34 0 32 19 -9 77 l-41 56
34 32 c19 17 38 44 42 59 16 64 -18 135 -76 158 -24 10 -178 17 -213 10z m196
-53 c49 -22 62 -95 23 -134 -27 -27 -71 -38 -136 -33 l-45 3 -3 88 -3 87 70 0
c39 0 81 -5 94 -11z"/>
<path d="M1297 2572 l-37 -3 2 -192 3 -192 129 -3 c88 -2 133 1 143 9 28 24
-6 34 -115 34 l-107 0 0 70 0 70 95 5 c76 4 95 8 95 20 0 12 -19 16 -97 18
l-98 3 0 59 0 59 108 3 c99 3 107 4 107 23 0 19 -7 20 -95 20 -52 0 -112 -1
-133 -3z"/>
<path d="M2443 2570 c-157 -24 -221 -227 -104 -333 49 -44 99 -60 167 -55 59
5 120 40 158 91 31 41 34 141 7 195 -41 80 -126 119 -228 102z m125 -60 c96
-59 96 -201 0 -260 -71 -43 -175 -18 -218 52 -42 69 -17 166 52 208 44 27 122
27 166 0z"/>
<path d="M2868 2573 c-10 -2 -18 -8 -18 -11 0 -4 -1 -86 -2 -183 -1 -96 2
-181 6 -187 13 -21 203 -15 251 7 77 36 115 95 115 179 -1 106 -64 177 -172
192 -65 10 -150 11 -180 3z m240 -72 c46 -34 67 -84 59 -143 -11 -80 -63 -123
-162 -133 -109 -12 -105 -17 -105 156 l0 149 83 0 c77 0 87 -2 125 -29z"/>
<path d="M3398 2569 c-16 -9 -18 -29 -18 -193 0 -158 2 -185 16 -190 28 -11
262 -7 270 5 14 23 -17 31 -114 30 -71 -1 -102 2 -109 11 -13 17 -13 109 0
126 6 8 39 12 98 12 48 0 90 4 93 9 12 19 -24 30 -110 33 l-89 3 0 55 0 55
108 3 c87 2 109 6 114 18 3 9 0 20 -8 25 -19 12 -230 11 -251 -2z"/>
<path d="M4348 2563 c-18 -22 -168 -350 -168 -369 0 -8 9 -14 20 -14 15 0 27
15 45 55 l24 55 104 0 104 0 21 -50 c21 -51 45 -71 63 -53 12 12 -143 361
-169 381 -21 16 -26 15 -44 -5z m67 -140 c20 -42 34 -77 33 -79 -2 -1 -33 -5
-70 -9 -55 -6 -69 -5 -73 8 -7 16 53 157 67 157 4 0 24 -34 43 -77z"/>
<path d="M5201 2566 c-8 -9 -11 -70 -9 -197 3 -182 3 -184 26 -187 13 -2 22 2
23 10 4 69 0 369 -5 377 -10 15 -21 14 -35 -3z"/>
<path d="M5585 2570 c-102 -15 -165 -89 -165 -192 1 -230 341 -273 406 -51 42
145 -79 267 -241 243z m123 -60 c53 -33 74 -75 69 -144 -3 -53 -7 -62 -39 -92
-62 -56 -137 -63 -205 -19 -58 38 -81 132 -48 195 38 74 151 104 223 60z"/>
<path d="M6283 2573 c-10 -3 -13 -41 -13 -138 0 -126 -8 -164 -27 -131 -4 8
-53 71 -107 140 -77 97 -105 126 -123 126 l-23 0 2 -192 c3 -185 4 -193 23
-193 19 0 20 8 23 138 1 75 6 137 11 137 5 0 59 -63 120 -141 77 -97 117 -139
129 -137 15 3 17 22 17 197 0 191 -3 206 -32 194z"/>
<path d="M1702 2378 c3 -185 4 -193 23 -193 19 0 20 8 23 133 1 72 6 132 10
132 4 0 33 -45 65 -99 64 -110 80 -129 100 -113 6 6 37 56 67 111 30 55 61
101 68 101 9 0 12 -34 12 -136 0 -124 2 -135 18 -132 15 3 17 22 20 196 2 184
2 192 -17 192 -20 0 -60 -57 -135 -192 -21 -38 -42 -68 -47 -68 -4 0 -43 59
-85 130 -64 109 -81 130 -101 130 l-23 0 2 -192z"/>
<path d="M3828 2385 c-2 -108 1 -190 7 -196 13 -13 252 -12 261 2 14 23 -18
33 -114 34 l-97 0 -5 170 c-5 166 -6 170 -27 173 -22 3 -22 3 -25 -183z"/>
<path d="M4773 2545 c-132 -79 -119 -282 22 -346 73 -34 200 -15 226 32 15 28
-15 36 -57 15 -77 -36 -172 -12 -215 56 -26 43 -22 122 9 165 44 62 144 82
208 42 36 -22 54 -19 54 10 0 28 -62 51 -138 51 -54 0 -75 -5 -109 -25z"/>
</g>
</svg>
